<?xml version="1.0" encoding="UTF-8"?>
<svg id="Layer_1" xmlns="http://www.w3.org/2000/svg" version="1.1" viewBox="0 0 348 104">
  <!-- Generator: Adobe Illustrator 30.2.0, SVG Export Plug-In . SVG Version: 2.1.1 Build 105)  -->
  <defs>
    <style>
      .st0 {
        fill: #b88b2d;
      }

      .st1 {
        fill: #bd8e2d;
      }

      .st2 {
        fill: #fff;
      }

      .st3 {
        fill: #59595c;
      }
    </style>
  </defs>
  <path class="st1" d="M110.17,25.59c0-3.87,0-4.59-.05-5.4-.05-.87-.26-1.27-1.1-1.45-.2-.05-.64-.08-.99-.08-.28,0-.43-.05-.43-.23s.18-.23.56-.23c1.35,0,2.95.08,3.49.08.87,0,2.8-.08,3.59-.08,1.6,0,3.31.15,4.69,1.1.71.48,1.73,1.78,1.73,3.49,0,1.89-.79,3.62-3.36,5.71,2.27,2.85,4.02,5.12,5.53,6.7,1.43,1.48,2.47,1.66,2.85,1.73.28.05.51.08.71.08s.31.08.31.2c0,.2-.18.25-.48.25h-2.42c-1.43,0-2.06-.13-2.72-.48-1.1-.59-2.06-1.78-3.49-3.74-1.02-1.4-2.19-3.13-2.52-3.51-.13-.15-.28-.18-.46-.18l-2.22-.05c-.13,0-.2.05-.2.2v.36c0,2.37,0,4.38.13,5.45.08.74.23,1.3.99,1.4.38.05.94.1,1.25.1.2,0,.31.08.31.2,0,.18-.18.25-.51.25-1.48,0-3.36-.08-3.74-.08-.48,0-2.09.08-3.11.08-.33,0-.51-.08-.51-.25,0-.13.1-.2.41-.2.38,0,.69-.05.92-.1.51-.1.64-.66.74-1.4.13-1.07.13-3.08.13-5.42v-4.48ZM113.17,27.6c0,.28.05.38.23.46.53.18,1.3.25,1.93.25,1.02,0,1.35-.1,1.81-.43.76-.56,1.5-1.73,1.5-3.82,0-3.62-2.39-4.66-3.9-4.66-.64,0-1.1.02-1.35.1-.18.05-.23.15-.23.36v7.74Z"/>
  <path class="st1" d="M128.68,25.59c0-3.87,0-4.58-.05-5.4-.05-.87-.25-1.27-1.1-1.45-.2-.05-.64-.08-.99-.08-.28,0-.43-.05-.43-.23s.18-.23.56-.23c1.35,0,2.95.08,3.72.08.61,0,2.22-.08,3.13-.08.38,0,.56.05.56.23s-.15.23-.41.23c-.28,0-.43.03-.74.08-.69.13-.89.56-.94,1.45-.05.81-.05,1.53-.05,5.4v3.57c0,3.69.74,5.25,1.99,6.27,1.15.94,2.32,1.04,3.18,1.04,1.12,0,2.5-.36,3.51-1.38,1.4-1.4,1.48-3.69,1.48-6.32v-3.18c0-3.87,0-4.58-.05-5.4-.05-.87-.26-1.27-1.1-1.45-.2-.05-.64-.08-.92-.08s-.43-.05-.43-.23.18-.23.54-.23c1.3,0,2.9.08,2.93.08.31,0,1.91-.08,2.9-.08.36,0,.53.05.53.23s-.15.23-.46.23c-.28,0-.43.03-.74.08-.69.13-.89.56-.94,1.45-.05.81-.05,1.53-.05,5.4v2.72c0,2.83-.28,5.83-2.42,7.67-1.81,1.55-3.64,1.83-5.3,1.83-1.35,0-3.79-.08-5.65-1.76-1.3-1.17-2.27-3.06-2.27-6.75v-3.72Z"/>
  <path class="st1" d="M153.41,33.99c.05,1.99.38,2.65.89,2.83.43.15.92.18,1.32.18.28,0,.43.05.43.2,0,.2-.23.26-.59.26-1.66,0-2.67-.08-3.16-.08-.23,0-1.43.08-2.75.08-.33,0-.56-.03-.56-.26,0-.15.15-.2.41-.2.33,0,.79-.02,1.15-.13.66-.2.76-.94.79-3.16l.23-15.08c0-.51.08-.87.33-.87.28,0,.51.33.94.79.31.33,4.18,4.48,7.9,8.18,1.73,1.73,5.17,5.4,5.6,5.81h.13l-.25-11.44c-.02-1.55-.25-2.04-.87-2.29-.38-.15-.99-.15-1.35-.15-.31,0-.41-.08-.41-.23,0-.2.28-.23.66-.23,1.32,0,2.55.08,3.08.08.28,0,1.25-.08,2.5-.08.33,0,.59.03.59.23,0,.15-.15.23-.46.23-.26,0-.46,0-.76.08-.71.2-.92.74-.94,2.17l-.28,16.07c0,.56-.1.79-.33.79-.28,0-.59-.28-.87-.56-1.6-1.53-4.86-4.86-7.51-7.49-2.78-2.75-5.6-5.93-6.06-6.42h-.08l.28,10.7Z"/>
  <path class="st1" d="M174.35,20.7c-.31-.94-.59-1.55-.94-1.81-.28-.18-.79-.23-1.02-.23-.26,0-.41-.02-.41-.23,0-.18.2-.23.56-.23,1.32,0,2.72.08,2.95.08s1.35-.08,2.83-.08c.36,0,.54.08.54.23,0,.2-.2.23-.46.23-.2,0-.46,0-.64.1-.23.1-.28.28-.28.56,0,.33.25,1.2.56,2.34.43,1.68,2.8,9.4,3.26,10.82h.08l4.94-13.27c.28-.71.43-.92.64-.92.28,0,.41.38.74,1.2l5.3,12.81h.08c.46-1.71,2.5-8.43,3.39-11.41.18-.59.26-1.12.26-1.48,0-.41-.23-.76-1.22-.76-.25,0-.43-.08-.43-.23,0-.18.2-.23.59-.23,1.35,0,2.42.08,2.65.08.18,0,1.27-.08,2.11-.08.28,0,.46.05.46.2,0,.18-.13.25-.36.25-.25,0-.61.03-.89.13-.61.23-.89,1.25-1.43,2.7-1.17,3.21-3.85,11.31-5.09,15.13-.28.89-.41,1.2-.74,1.2-.25,0-.41-.31-.79-1.25l-5.3-12.76h-.05c-.48,1.3-3.87,10.32-4.97,12.66-.48,1.04-.61,1.35-.92,1.35-.26,0-.38-.28-.59-.94l-5.4-16.17Z"/>
  <path class="st1" d="M204.88,30.81c-.13,0-.18.05-.23.2l-1.38,3.64c-.25.64-.38,1.25-.38,1.55,0,.46.23.79,1.02.79h.38c.31,0,.38.05.38.2,0,.2-.15.25-.43.25-.81,0-1.91-.08-2.7-.08-.28,0-1.68.08-3.01.08-.33,0-.48-.05-.48-.25,0-.15.1-.2.31-.2.23,0,.59-.03.79-.05,1.17-.15,1.66-1.02,2.17-2.29l6.39-16c.31-.74.46-1.02.71-1.02.23,0,.38.23.64.81.61,1.4,4.69,11.79,6.32,15.66.97,2.29,1.71,2.65,2.24,2.78.38.08.76.1,1.07.1.2,0,.33.02.33.2,0,.2-.23.25-1.17.25s-2.78,0-4.81-.05c-.46-.02-.76-.02-.76-.2,0-.15.1-.2.36-.23.18-.05.36-.28.23-.59l-2.04-5.4c-.05-.13-.13-.18-.25-.18h-5.68ZM210.08,29.54c.13,0,.15-.08.13-.15l-2.29-6.29c-.03-.1-.05-.23-.13-.23s-.13.13-.15.23l-2.34,6.26c-.02.1,0,.18.1.18h4.69Z"/>
  <path class="st1" d="M225.38,30.07c0,3.26,0,5.02.53,5.48.43.38,1.1.56,3.08.56,1.35,0,2.34-.03,2.98-.71.31-.33.61-1.04.66-1.53.02-.23.08-.38.28-.38.18,0,.2.13.2.43,0,.28-.18,2.19-.38,2.93-.15.56-.28.69-1.6.69-1.83,0-3.16-.05-4.3-.08-1.15-.05-2.06-.08-3.11-.08-.28,0-.84.02-1.45.02-.59.03-1.25.05-1.76.05-.33,0-.51-.08-.51-.25,0-.13.1-.2.41-.2.38,0,.69-.05.92-.1.51-.1.64-.66.74-1.4.13-1.07.13-3.08.13-5.42v-4.48c0-3.87,0-4.58-.05-5.4-.05-.87-.25-1.27-1.1-1.45-.2-.05-.51-.08-.84-.08-.28,0-.43-.05-.43-.23s.18-.23.56-.23c1.2,0,2.8.08,3.49.08.61,0,2.47-.08,3.46-.08.36,0,.53.05.53.23s-.15.23-.46.23c-.28,0-.69.03-.99.08-.69.13-.89.56-.94,1.45-.05.81-.05,1.53-.05,5.4v4.48Z"/>
  <rect class="st0" x="30.07" y="15.1" width="48.92" height="48.92"/>
  <path class="st2" d="M42.97,42.88v-7.38c0-1.89-.06-4.06-.19-6.51-.13-2.44-.29-4.37-.48-5.77l-5.73-.84v-.24h15.69c2.98,0,5.35.59,7.13,1.78,1.78,1.19,3.01,2.54,3.69,4.06.68,1.52,1.03,2.83,1.03,3.93,0,1.51-.34,2.86-1.03,4.05-.69,1.19-1.58,2.13-2.69,2.83-1.11.7-2.23,1.11-3.38,1.24v.1c1.08.43,1.98,1,2.7,1.72.56.56,1.19,1.34,1.91,2.35.72,1.01,1.66,2.39,2.84,4.14,1.18,1.75,2.13,3.12,2.84,4.11.72.99,1.38,1.79,1.98,2.41,1.34,1.34,2.66,2.01,3.97,2.01v.24h-4.16c-2.33,0-4.17-.7-5.54-2.1-.54-.54-1.08-1.18-1.61-1.92-.53-.74-1.38-1.95-2.53-3.64-1.16-1.69-2.13-3.08-2.91-4.18-.79-1.1-1.41-1.88-1.87-2.34-.69-.68-1.31-1.14-1.88-1.37-.57-.23-1.4-.35-2.5-.35-1,0-1.78.06-2.34.17-.1.86-.14,1.82-.14,2.87v4.42c0,1.86.2,4.32.6,7.38l5.95.84v.24h-17.75v-.24l5.61-.84c.24-1.61.43-3.87.57-6.78.14-2.91.21-5.04.21-6.38M43.57,56.19h1.72V23.08h-1.72v33.11ZM47.73,31.96v3.92c0,1.39.05,2.68.14,3.87.62.1,1.52.14,2.7.14,2.04,0,3.68-.35,4.93-1.05,1.25-.7,2.14-1.61,2.68-2.74.53-1.12.8-2.35.8-3.69s-.26-2.54-.78-3.65c-.52-1.11-1.19-2.06-2.01-2.83-.82-.77-1.74-1.37-2.75-1.79-1.01-.42-2-.63-2.97-.63s-1.65.06-2.17.19c-.14.92-.27,2.25-.39,3.97-.12,1.72-.18,3.15-.18,4.3M50.12,22.67v.24c2.18.05,4.01.58,5.48,1.59,1.47,1.01,2.54,2.25,3.21,3.71.67,1.47,1,2.91,1,4.35,0,3.19-1.39,5.49-4.16,6.9l.14.1c1.62-.41,2.97-1.3,4.03-2.65s1.59-2.97,1.59-4.85c0-1.47-.29-2.79-.86-3.98-.57-1.19-1.35-2.18-2.33-2.97-.98-.8-2.07-1.4-3.28-1.82-1.21-.41-2.43-.62-3.65-.62h-1.17ZM56.33,43.81l5.18,7.53c1.24,1.77,2.35,3.03,3.32,3.79.97.76,2.12,1.14,3.44,1.16v-.24c-1.26-.37-2.87-1.98-4.85-4.85l-4.16-5.97c-.89-1.31-1.73-2.29-2.51-2.96s-1.74-1.11-2.87-1.34l-.1.19c.89.57,1.74,1.47,2.53,2.7"/>
  <path class="st0" d="M20.23,75.62c0-2.22,0-2.63-.03-3.1-.03-.5-.15-.73-.63-.83-.12-.03-.36-.04-.57-.04-.16,0-.25-.03-.25-.13s.1-.13.32-.13c.77,0,1.69.04,2,.04.5,0,1.61-.04,2.06-.04.92,0,1.9.09,2.69.63.41.28.99,1.02.99,2,0,1.08-.45,2.07-1.93,3.27,1.3,1.64,2.31,2.94,3.17,3.84.82.85,1.42.95,1.64.99.16.03.29.04.41.04s.18.04.18.12c0,.12-.1.15-.28.15h-1.39c-.82,0-1.18-.07-1.56-.28-.63-.34-1.18-1.02-2-2.15-.58-.8-1.26-1.8-1.45-2.02-.07-.09-.16-.1-.26-.1l-1.27-.03c-.07,0-.12.03-.12.12v.2c0,1.36,0,2.51.07,3.13.04.42.13.74.57.8.22.03.54.06.72.06.12,0,.18.04.18.12,0,.1-.1.15-.29.15-.85,0-1.93-.04-2.15-.04-.28,0-1.2.04-1.78.04-.19,0-.29-.04-.29-.15,0-.07.06-.12.23-.12.22,0,.39-.03.53-.06.29-.06.37-.38.42-.8.07-.61.07-1.77.07-3.11v-2.57ZM21.95,76.77c0,.16.03.22.13.26.31.1.75.15,1.11.15.58,0,.77-.06,1.04-.25.44-.32.86-.99.86-2.19,0-2.07-1.37-2.67-2.24-2.67-.36,0-.63.01-.77.06-.1.03-.13.09-.13.2v4.44Z"/>
  <path class="st0" d="M30.85,75.62c0-2.22,0-2.63-.03-3.1-.03-.5-.15-.73-.63-.83-.12-.03-.37-.04-.57-.04-.16,0-.25-.03-.25-.13s.1-.13.32-.13c.77,0,1.69.04,2.13.04.35,0,1.27-.04,1.8-.04.22,0,.32.03.32.13s-.09.13-.23.13c-.16,0-.25.01-.42.04-.39.07-.51.32-.54.83-.03.47-.03.88-.03,3.1v2.04c0,2.12.42,3.01,1.14,3.59.66.54,1.33.6,1.83.6.64,0,1.43-.2,2.02-.79.8-.8.85-2.12.85-3.62v-1.83c0-2.22,0-2.63-.03-3.1-.03-.5-.15-.73-.63-.83-.12-.03-.36-.04-.53-.04s-.25-.03-.25-.13.1-.13.31-.13c.74,0,1.67.04,1.68.04.18,0,1.1-.04,1.67-.04.2,0,.31.03.31.13s-.09.13-.26.13c-.16,0-.25.01-.42.04-.39.07-.51.32-.54.83-.03.47-.03.88-.03,3.1v1.56c0,1.62-.16,3.35-1.39,4.4-1.04.89-2.09,1.05-3.04,1.05-.77,0-2.18-.04-3.24-1.01-.74-.67-1.3-1.75-1.3-3.87v-2.13Z"/>
  <path class="st0" d="M45.03,80.44c.03,1.14.22,1.52.51,1.62.25.09.53.1.76.1.16,0,.25.03.25.12,0,.12-.13.15-.34.15-.95,0-1.53-.04-1.81-.04-.13,0-.82.04-1.58.04-.19,0-.32-.02-.32-.15,0-.09.09-.12.23-.12.19,0,.45-.01.66-.07.38-.12.44-.54.45-1.81l.13-8.65c0-.29.04-.5.19-.5.16,0,.29.19.54.45.18.19,2.4,2.57,4.53,4.69.99.99,2.97,3.1,3.21,3.33h.07l-.15-6.56c-.01-.89-.15-1.17-.5-1.32-.22-.09-.57-.09-.77-.09-.18,0-.23-.04-.23-.13,0-.12.16-.13.38-.13.76,0,1.46.04,1.77.04.16,0,.72-.04,1.43-.04.19,0,.34.01.34.13,0,.09-.09.13-.26.13-.15,0-.26,0-.44.04-.41.12-.53.42-.54,1.24l-.16,9.22c0,.32-.06.45-.19.45-.16,0-.34-.16-.5-.32-.92-.88-2.79-2.79-4.31-4.29-1.59-1.58-3.21-3.4-3.48-3.68h-.04l.16,6.14Z"/>
  <path class="st0" d="M57.04,72.82c-.18-.54-.34-.89-.54-1.04-.16-.1-.45-.13-.58-.13-.15,0-.23-.02-.23-.13,0-.1.12-.13.32-.13.76,0,1.56.04,1.69.04s.77-.04,1.62-.04c.2,0,.31.04.31.13,0,.12-.12.13-.26.13-.12,0-.26,0-.37.06-.13.06-.16.16-.16.32,0,.19.15.69.32,1.34.25.96,1.61,5.39,1.87,6.21h.04l2.83-7.61c.16-.41.25-.53.36-.53.16,0,.23.22.42.69l3.04,7.35h.04c.26-.98,1.43-4.83,1.94-6.54.1-.34.15-.64.15-.85,0-.23-.13-.44-.7-.44-.15,0-.25-.04-.25-.13,0-.1.12-.13.34-.13.77,0,1.39.04,1.52.04.1,0,.73-.04,1.21-.04.16,0,.26.03.26.12,0,.1-.07.15-.2.15-.15,0-.35.01-.51.07-.35.13-.51.72-.82,1.55-.67,1.84-2.21,6.49-2.92,8.68-.16.51-.23.69-.42.69-.15,0-.23-.18-.45-.72l-3.04-7.32h-.03c-.28.74-2.22,5.92-2.85,7.26-.28.6-.35.77-.53.77-.15,0-.22-.16-.34-.54l-3.1-9.28Z"/>
  <path class="st0" d="M74.56,78.61c-.07,0-.1.03-.13.12l-.79,2.09c-.15.37-.22.72-.22.89,0,.26.13.45.58.45h.22c.18,0,.22.03.22.12,0,.12-.09.15-.25.15-.47,0-1.1-.04-1.55-.04-.16,0-.96.04-1.72.04-.19,0-.28-.03-.28-.15,0-.09.06-.12.18-.12.13,0,.34-.01.45-.03.67-.09.95-.58,1.24-1.31l3.67-9.17c.18-.42.26-.58.41-.58.13,0,.22.13.37.47.35.8,2.69,6.76,3.62,8.98.56,1.32.98,1.52,1.29,1.59.22.04.44.06.61.06.12,0,.19.01.19.12,0,.12-.13.15-.67.15s-1.59,0-2.76-.03c-.26-.01-.44-.01-.44-.12,0-.09.06-.12.2-.13.1-.03.2-.16.13-.34l-1.17-3.1c-.03-.07-.07-.1-.15-.1h-3.26ZM77.54,77.88c.07,0,.09-.04.07-.09l-1.31-3.61c-.02-.06-.03-.13-.07-.13s-.07.07-.09.13l-1.34,3.59c-.01.06,0,.1.06.1h2.69Z"/>
  <path class="st0" d="M86.31,78.19c0,1.87,0,2.88.31,3.14.25.22.63.32,1.77.32.77,0,1.34-.01,1.71-.41.18-.19.35-.6.38-.88.01-.13.04-.22.16-.22.1,0,.12.07.12.25,0,.16-.1,1.26-.22,1.68-.09.32-.16.39-.92.39-1.05,0-1.81-.03-2.47-.04-.66-.03-1.18-.04-1.78-.04-.16,0-.48.01-.83.01-.34.01-.72.03-1.01.03-.19,0-.29-.04-.29-.15,0-.07.06-.12.23-.12.22,0,.39-.03.53-.06.29-.06.37-.38.42-.8.07-.61.07-1.77.07-3.11v-2.57c0-2.22,0-2.63-.03-3.1-.03-.5-.15-.73-.63-.83-.12-.03-.29-.04-.48-.04-.16,0-.25-.03-.25-.13s.1-.13.32-.13c.69,0,1.61.04,2,.04.35,0,1.42-.04,1.99-.04.2,0,.31.03.31.13s-.09.13-.26.13c-.16,0-.39.01-.57.04-.39.07-.51.32-.54.83-.03.47-.03.88-.03,3.1v2.57Z"/>
  <path class="st0" d="M11.29,87.68c0-1.34,0-1.58-.02-1.86-.02-.3-.09-.44-.38-.5-.07-.02-.22-.03-.34-.03-.1,0-.15-.02-.15-.08s.06-.08.19-.08c.24,0,.49,0,.71,0,.23,0,.43.02.55.02.28,0,2.03,0,2.2,0,.17-.02.31-.04.38-.05.04,0,.1-.04.14-.04s.05.04.05.08c0,.06-.04.17-.07.57,0,.09-.03.47-.04.58,0,.04-.03.1-.09.1s-.08-.04-.08-.12c0-.06,0-.21-.05-.32-.06-.16-.15-.26-.59-.32-.15-.02-1.07-.04-1.25-.04-.04,0-.06.03-.06.09v2.23c0,.06,0,.1.06.1.19,0,1.2,0,1.41-.02.21-.02.34-.04.42-.13.06-.07.1-.11.14-.11.04,0,.06.02.06.07s-.04.19-.07.64c-.02.18-.03.53-.03.59,0,.07,0,.17-.08.17-.06,0-.08-.03-.08-.08,0-.09,0-.2-.03-.32-.04-.18-.17-.31-.49-.34-.17-.02-1.04-.03-1.25-.03-.04,0-.05.04-.05.09v.69c0,.3,0,1.11,0,1.36.02.61.16.74,1.06.74.23,0,.6,0,.83-.11.23-.11.33-.29.4-.65.02-.1.04-.13.1-.13.07,0,.07.07.07.16,0,.2-.07.8-.11.98-.06.23-.14.23-.48.23-.66,0-1.14-.02-1.52-.03-.38-.02-.65-.03-.92-.03-.1,0-.29,0-.5,0-.2,0-.43.02-.61.02-.11,0-.18-.03-.18-.09,0-.04.04-.07.14-.07.13,0,.24-.02.32-.03.18-.04.22-.23.26-.48.04-.37.04-1.06.04-1.87v-1.55Z"/>
  <path class="st0" d="M19.8,90.59c.02.69.13.91.31.98.15.05.32.06.46.06.1,0,.15.02.15.07,0,.07-.08.09-.2.09-.57,0-.92-.03-1.09-.03-.08,0-.49.03-.95.03-.11,0-.19,0-.19-.09,0-.05.05-.07.14-.07.11,0,.27,0,.4-.04.23-.07.26-.33.27-1.09l.08-5.21c0-.18.03-.3.11-.3.1,0,.18.11.33.27.11.11,1.44,1.55,2.73,2.82.6.6,1.79,1.86,1.94,2h.04l-.09-3.95c0-.54-.09-.7-.3-.79-.13-.05-.34-.05-.47-.05-.11,0-.14-.03-.14-.08,0-.07.1-.08.23-.08.46,0,.88.03,1.06.03.1,0,.43-.03.86-.03.11,0,.2,0,.2.08,0,.05-.05.08-.16.08-.09,0-.16,0-.26.03-.25.07-.32.26-.33.75l-.1,5.55c0,.19-.04.27-.11.27-.1,0-.2-.1-.3-.19-.55-.53-1.68-1.68-2.59-2.59-.96-.95-1.93-2.05-2.09-2.22h-.03l.1,3.69Z"/>
  <path class="st0" d="M31.27,85.63l-1.31.04c-.51.02-.72.06-.85.26-.09.13-.13.24-.15.31-.02.07-.04.11-.1.11-.06,0-.08-.04-.08-.14,0-.14.17-.94.19-1.01.03-.11.05-.17.11-.17.07,0,.16.09.38.11.26.03.59.04.88.04h3.48c.28,0,.48-.03.61-.04.13-.03.2-.04.24-.04.06,0,.07.05.07.18,0,.18-.03.79-.03,1.02,0,.09-.03.14-.08.14-.07,0-.09-.04-.1-.18v-.1c-.03-.23-.26-.47-1.05-.49l-1.11-.03v3.61c0,.81,0,1.5.04,1.88.03.25.08.44.34.47.12.02.32.04.45.04.1,0,.14.03.14.07,0,.06-.07.09-.17.09-.58,0-1.13-.03-1.38-.03-.2,0-.76.03-1.11.03-.11,0-.18-.03-.18-.09,0-.04.04-.07.14-.07.13,0,.24-.02.32-.04.18-.04.23-.23.25-.48.04-.37.04-1.06.04-1.87v-3.61Z"/>
  <path class="st0" d="M38.81,87.68c0-1.34,0-1.58-.02-1.86-.02-.3-.09-.44-.38-.5-.07-.02-.22-.03-.34-.03-.1,0-.15-.02-.15-.08s.06-.08.19-.08c.24,0,.49,0,.71,0,.23,0,.43.02.55.02.28,0,2.03,0,2.2,0,.17-.02.31-.04.38-.05.04,0,.1-.04.14-.04s.05.04.05.08c0,.06-.04.17-.07.57,0,.09-.03.47-.04.58,0,.04-.03.1-.09.1s-.08-.04-.08-.12c0-.06,0-.21-.05-.32-.06-.16-.15-.26-.59-.32-.15-.02-1.07-.04-1.25-.04-.04,0-.06.03-.06.09v2.23c0,.06,0,.1.06.1.19,0,1.2,0,1.41-.02.21-.02.34-.04.42-.13.06-.07.1-.11.14-.11.04,0,.06.02.06.07s-.04.19-.07.64c-.02.18-.03.53-.03.59,0,.07,0,.17-.08.17-.06,0-.08-.03-.08-.08,0-.09,0-.2-.03-.32-.04-.18-.17-.31-.49-.34-.17-.02-1.04-.03-1.25-.03-.04,0-.05.04-.05.09v.69c0,.3,0,1.11,0,1.36.02.61.16.74,1.06.74.23,0,.6,0,.83-.11.23-.11.33-.29.4-.65.02-.1.04-.13.1-.13.07,0,.07.07.07.16,0,.2-.07.8-.11.98-.06.23-.14.23-.48.23-.66,0-1.14-.02-1.52-.03-.38-.02-.65-.03-.92-.03-.1,0-.29,0-.5,0-.2,0-.43.02-.61.02-.11,0-.18-.03-.18-.09,0-.04.04-.07.14-.07.13,0,.24-.02.32-.03.18-.04.22-.23.26-.48.04-.37.04-1.06.04-1.87v-1.55Z"/>
  <path class="st0" d="M46.83,87.68c0-1.34,0-1.58-.02-1.86-.02-.3-.09-.44-.38-.5-.07-.02-.22-.03-.34-.03-.1,0-.15-.02-.15-.08s.06-.08.19-.08c.47,0,1.02.03,1.2.03.3,0,.97-.03,1.24-.03.55,0,1.14.05,1.62.38.25.17.6.62.6,1.2,0,.65-.27,1.25-1.16,1.97.78.99,1.39,1.77,1.91,2.31.49.51.85.57.98.6.1.02.18.03.25.03s.11.03.11.07c0,.07-.06.09-.17.09h-.84c-.49,0-.71-.04-.94-.17-.38-.2-.71-.62-1.2-1.29-.35-.48-.76-1.08-.87-1.21-.04-.05-.1-.06-.16-.06l-.77-.02s-.07.02-.07.07v.12c0,.82,0,1.51.04,1.88.03.26.08.45.34.48.13.02.33.04.43.04.07,0,.11.03.11.07,0,.06-.06.09-.18.09-.51,0-1.16-.03-1.29-.03-.17,0-.72.03-1.07.03-.11,0-.18-.03-.18-.09,0-.04.04-.07.14-.07.13,0,.24-.02.32-.04.18-.04.22-.23.25-.48.04-.37.04-1.06.04-1.87v-1.55ZM47.87,88.38c0,.1.02.13.08.16.18.06.45.09.67.09.35,0,.47-.04.62-.15.26-.19.52-.6.52-1.32,0-1.25-.83-1.61-1.35-1.61-.22,0-.38,0-.47.04-.06.02-.08.05-.08.12v2.67Z"/>
  <path class="st0" d="M55.94,87.68c0-1.34,0-1.58-.02-1.86-.02-.3-.09-.44-.38-.5-.07-.02-.22-.03-.34-.03-.1,0-.15-.02-.15-.08s.06-.08.19-.08c.47,0,1.02.03,1.27.03.36,0,.87-.03,1.28-.03,1.1,0,1.49.37,1.64.5.19.18.44.58.44,1.05,0,1.25-.91,2.13-2.16,2.13-.04,0-.14,0-.18,0-.04,0-.11-.02-.11-.08,0-.07.06-.1.25-.1.49,0,1.18-.55,1.18-1.45,0-.29-.03-.88-.52-1.32-.32-.29-.68-.34-.88-.34-.13,0-.26,0-.34.04-.04.02-.07.07-.07.17v3.52c0,.81,0,1.5.04,1.88.03.25.08.44.34.48.12.02.32.03.45.03.1,0,.14.03.14.07,0,.06-.07.09-.17.09-.58,0-1.13-.03-1.36-.03-.2,0-.76.03-1.11.03-.11,0-.18-.03-.18-.09,0-.04.04-.07.14-.07.13,0,.24-.02.32-.03.18-.04.22-.23.26-.48.04-.37.04-1.06.04-1.87v-1.55Z"/>
  <path class="st0" d="M64.16,87.68c0-1.34,0-1.58-.02-1.86-.02-.3-.09-.44-.38-.5-.07-.02-.22-.03-.34-.03-.1,0-.15-.02-.15-.08s.06-.08.19-.08c.47,0,1.02.03,1.2.03.3,0,.97-.03,1.24-.03.55,0,1.14.05,1.62.38.25.17.6.62.6,1.2,0,.65-.27,1.25-1.16,1.97.78.99,1.39,1.77,1.91,2.31.49.51.85.57.98.6.1.02.18.03.25.03s.11.03.11.07c0,.07-.06.09-.17.09h-.84c-.49,0-.71-.04-.94-.17-.38-.2-.71-.62-1.2-1.29-.35-.48-.76-1.08-.87-1.21-.04-.05-.1-.06-.16-.06l-.77-.02s-.07.02-.07.07v.12c0,.82,0,1.51.04,1.88.03.26.08.45.34.48.13.02.33.04.43.04.07,0,.11.03.11.07,0,.06-.06.09-.18.09-.51,0-1.16-.03-1.29-.03-.17,0-.72.03-1.07.03-.11,0-.18-.03-.18-.09,0-.04.04-.07.14-.07.13,0,.24-.02.32-.04.18-.04.22-.23.25-.48.04-.37.04-1.06.04-1.87v-1.55ZM65.2,88.38c0,.1.02.13.08.16.18.06.45.09.67.09.35,0,.47-.04.62-.15.26-.19.52-.6.52-1.32,0-1.25-.83-1.61-1.35-1.61-.22,0-.38,0-.47.04-.06.02-.08.05-.08.12v2.67Z"/>
  <path class="st0" d="M73.26,87.68c0-1.34,0-1.58-.02-1.86-.02-.3-.11-.45-.3-.49-.1-.03-.21-.04-.32-.04-.09,0-.14-.02-.14-.09,0-.05.07-.07.21-.07.33,0,.89.03,1.14.03.22,0,.74-.03,1.07-.03.11,0,.18.02.18.07,0,.07-.05.09-.14.09s-.16,0-.26.03c-.24.04-.31.19-.33.5-.02.28-.02.53-.02,1.86v1.55c0,.85,0,1.55.03,1.93.03.24.09.4.35.43.12.02.32.03.45.03.1,0,.14.03.14.07,0,.06-.07.09-.17.09-.58,0-1.13-.03-1.37-.03-.2,0-.76.03-1.11.03-.11,0-.18-.03-.18-.09,0-.04.04-.07.14-.07.13,0,.24-.02.32-.03.18-.04.23-.19.26-.44.04-.37.04-1.06.04-1.92v-1.55Z"/>
  <path class="st0" d="M79.22,91.68c-.14-.06-.17-.11-.17-.3,0-.48.04-1.01.04-1.15,0-.13.03-.23.11-.23.08,0,.09.08.09.15,0,.11.04.3.08.45.19.65.71.89,1.26.89.79,0,1.18-.54,1.18-1,0-.43-.13-.84-.86-1.41l-.4-.32c-.97-.76-1.3-1.37-1.3-2.08,0-.97.81-1.66,2.03-1.66.57,0,.94.09,1.17.15.08.02.12.04.12.11,0,.11-.03.37-.03,1.06,0,.19-.03.26-.1.26-.06,0-.09-.05-.09-.16,0-.08-.04-.35-.23-.58-.13-.17-.39-.43-.96-.43-.65,0-1.05.38-1.05.91,0,.4.2.71.93,1.27l.25.18c1.06.82,1.44,1.41,1.44,2.24,0,.51-.19,1.12-.83,1.53-.44.28-.93.36-1.4.36-.51,0-.91-.06-1.28-.23"/>
  <path class="st0" d="M87.28,87.68c0-1.34,0-1.58-.02-1.86-.02-.3-.09-.44-.38-.5-.07-.02-.22-.03-.34-.03-.1,0-.15-.02-.15-.08s.06-.08.19-.08c.24,0,.49,0,.71,0,.23,0,.43.02.55.02.28,0,2.03,0,2.2,0,.17-.02.31-.04.38-.05.04,0,.1-.04.14-.04s.05.04.05.08c0,.06-.04.17-.07.57,0,.09-.03.47-.04.58,0,.04-.03.1-.09.1s-.08-.04-.08-.12c0-.06,0-.21-.05-.32-.06-.16-.15-.26-.59-.32-.15-.02-1.07-.04-1.25-.04-.04,0-.06.03-.06.09v2.23c0,.06,0,.1.06.1.19,0,1.2,0,1.41-.02.21-.02.34-.04.42-.13.06-.07.1-.11.14-.11.04,0,.06.02.06.07s-.04.19-.07.64c-.02.18-.03.53-.03.59,0,.07,0,.17-.08.17-.06,0-.08-.03-.08-.08,0-.09,0-.2-.03-.32-.04-.18-.17-.31-.49-.34-.17-.02-1.04-.03-1.25-.03-.04,0-.05.04-.05.09v.69c0,.3,0,1.11,0,1.36.02.61.16.74,1.06.74.23,0,.6,0,.83-.11.23-.11.33-.29.4-.65.02-.1.04-.13.1-.13.07,0,.07.07.07.16,0,.2-.07.8-.11.98-.06.23-.14.23-.48.23-.66,0-1.14-.02-1.52-.03-.38-.02-.65-.03-.92-.03-.1,0-.29,0-.5,0-.2,0-.43.02-.61.02-.11,0-.18-.03-.18-.09,0-.04.04-.07.14-.07.13,0,.24-.02.32-.03.18-.04.22-.23.26-.48.04-.37.04-1.06.04-1.87v-1.55Z"/>
  <path class="st0" d="M94.82,91.68c-.14-.06-.17-.11-.17-.3,0-.48.04-1.01.04-1.15,0-.13.03-.23.11-.23.08,0,.09.08.09.15,0,.11.04.3.08.45.19.65.71.89,1.26.89.79,0,1.18-.54,1.18-1,0-.43-.13-.84-.86-1.41l-.4-.32c-.97-.76-1.3-1.37-1.3-2.08,0-.97.81-1.66,2.03-1.66.57,0,.94.09,1.17.15.08.02.12.04.12.11,0,.11-.03.37-.03,1.06,0,.19-.03.26-.1.26-.06,0-.09-.05-.09-.16,0-.08-.04-.35-.23-.58-.13-.17-.39-.43-.96-.43-.65,0-1.05.38-1.05.91,0,.4.2.71.93,1.27l.25.18c1.05.82,1.44,1.41,1.44,2.24,0,.51-.19,1.12-.83,1.53-.44.28-.93.36-1.4.36-.51,0-.91-.06-1.28-.23"/>
  <polygon class="st0" points="83.89 12.77 82.74 12.77 82.74 12.1 85.87 12.1 85.87 12.77 84.72 12.77 84.72 15.91 83.89 15.91 83.89 12.77"/>
  <path class="st0" d="M89.6,14.48c0-.65.01-1.38.03-1.81h-.03c-.18.78-.56,2.05-.93,3.24h-.7c-.28-1.04-.67-2.49-.84-3.25h-.03c.03.45.05,1.23.05,1.88v1.36h-.75v-3.81h1.23c.3,1,.63,2.24.74,2.81h0c.09-.5.51-1.84.83-2.81h1.18v3.81h-.79v-1.43Z"/>
  <path class="st0" d="M81.99,67.02H27.06V12.1h54.93v54.93ZM27.63,66.45h53.79V12.66H27.63v53.79Z"/>
  <g>
    <path class="st3" d="M109.46,72.46v-27.94h3.18l12.17,21.12h-1.71l12.01-21.12h3.18l.04,27.94h-3.72l-.04-21.92h.89l-10.7,18.52h-1.78l-10.77-18.52h.97v21.92h-3.72Z"/>
    <path class="st3" d="M148.45,72.46v-27.94h19.15v3.47h-15.27v21h15.81v3.47h-19.69ZM151.97,59.96v-3.39h13.95v3.39h-13.95Z"/>
    <path class="st3" d="M172.28,72.46l12.29-27.94h3.84l12.32,27.94h-4.07l-10.97-25.71h1.55l-10.97,25.71h-3.99ZM177.51,65.47l1.05-3.19h15.27l1.12,3.19h-17.44Z"/>
    <path class="st3" d="M206.74,72.46v-27.94h11.43c2.89,0,5.45.59,7.65,1.76,2.21,1.17,3.93,2.81,5.15,4.91,1.23,2.1,1.84,4.54,1.84,7.31s-.61,5.2-1.84,7.3c-1.23,2.1-2.95,3.74-5.15,4.91-2.21,1.17-4.76,1.76-7.65,1.76h-11.43ZM210.61,68.98h7.33c2.25,0,4.19-.44,5.83-1.32,1.64-.88,2.91-2.11,3.82-3.69.9-1.58,1.36-3.41,1.36-5.49s-.45-3.94-1.36-5.51c-.91-1.57-2.18-2.79-3.82-3.67-1.64-.88-3.58-1.32-5.83-1.32h-7.33v21Z"/>
    <path class="st3" d="M252.97,72.78c-2.07,0-3.99-.36-5.75-1.08-1.77-.72-3.3-1.72-4.59-3.01-1.29-1.29-2.3-2.8-3.02-4.53-.72-1.73-1.08-3.62-1.08-5.67s.36-3.94,1.08-5.67c.72-1.73,1.73-3.24,3.02-4.53,1.29-1.29,2.82-2.3,4.57-3.01,1.76-.72,3.68-1.08,5.77-1.08s3.98.35,5.74,1.06c1.76.71,3.28,1.7,4.57,2.99,1.29,1.29,2.29,2.81,3,4.55.71,1.74,1.07,3.64,1.07,5.69s-.36,3.98-1.07,5.71c-.71,1.73-1.71,3.24-3,4.53-1.29,1.29-2.82,2.29-4.57,2.99-1.76.71-3.67,1.06-5.74,1.06ZM252.93,69.22c1.52,0,2.93-.27,4.21-.8,1.28-.53,2.39-1.28,3.33-2.25s1.68-2.11,2.21-3.41c.53-1.3.79-2.73.79-4.27s-.26-2.96-.79-4.25c-.53-1.29-1.27-2.43-2.21-3.41-.94-.98-2.05-1.74-3.33-2.28-1.28-.53-2.68-.8-4.21-.8s-2.89.27-4.17.8-2.4,1.29-3.35,2.28c-.96.98-1.7,2.12-2.23,3.41-.53,1.29-.79,2.71-.79,4.25s.26,2.97.79,4.27,1.27,2.44,2.23,3.41,2.07,1.72,3.35,2.25c1.28.53,2.67.8,4.17.8Z"/>
    <path class="st3" d="M280.64,72.46l-9.07-27.94h3.99l8.33,25.79h-2.01l8.64-25.79h3.57l8.45,25.79h-1.94l8.45-25.79h3.68l-9.07,27.94h-4.07l-7.91-23.91h1.05l-7.95,23.91h-4.15Z"/>
    <path class="st3" d="M327.34,72.78c-2.07,0-4.04-.33-5.93-.98s-3.37-1.5-4.46-2.54l1.43-3.11c1.03.93,2.35,1.7,3.95,2.32,1.6.61,3.27.92,5,.92,1.58,0,2.85-.19,3.84-.56.98-.37,1.71-.88,2.17-1.54.46-.65.7-1.39.7-2.21,0-.96-.3-1.73-.91-2.32s-1.39-1.06-2.36-1.42c-.97-.36-2.03-.67-3.2-.94-1.16-.27-2.33-.58-3.51-.94-1.18-.36-2.25-.82-3.22-1.38s-1.75-1.31-2.34-2.26c-.59-.94-.89-2.16-.89-3.65s.37-2.76,1.1-3.97,1.87-2.18,3.41-2.91c1.54-.73,3.49-1.1,5.87-1.1,1.58,0,3.14.21,4.69.64,1.55.43,2.89,1.04,4.03,1.84l-1.28,3.19c-1.16-.8-2.39-1.38-3.68-1.74s-2.54-.54-3.76-.54c-1.53,0-2.78.2-3.76.6-.98.4-1.7.93-2.15,1.6-.45.67-.68,1.41-.68,2.23,0,.99.3,1.77.91,2.36.61.59,1.39,1.05,2.36,1.4.97.35,2.03.66,3.2.94,1.16.28,2.33.59,3.51.94,1.18.35,2.25.8,3.22,1.36.97.56,1.75,1.3,2.35,2.24.59.93.89,2.13.89,3.59s-.38,2.72-1.12,3.93-1.91,2.18-3.47,2.91c-1.56.73-3.53,1.1-5.91,1.1Z"/>
  </g>
  <g>
    <path d="M108.92,90.46v-9.1h1.26v9.1h-1.26ZM110.03,88.26l-.06-1.59,5.01-5.32h1.44l-3.87,4.21-.71.81-1.8,1.88ZM115.18,90.46l-3.62-4.34.85-.96,4.25,5.3h-1.48Z"/>
    <path d="M117.87,90.46l4-9.1h1.25l4.01,9.1h-1.33l-3.57-8.37h.5l-3.57,8.37h-1.3ZM119.57,88.19l.34-1.04h4.97l.37,1.04h-5.68Z"/>
    <path d="M130.01,90.46v-9.1h1.04l5.84,7.47h-.54v-7.47h1.26v9.1h-1.04l-5.84-7.47h.54v7.47h-1.26Z"/>
    <path d="M142.96,90.56c-.52,0-1.01-.11-1.46-.34-.45-.22-.82-.55-1.11-.97l.73-.88c.24.35.52.61.83.8.31.19.65.28,1.02.28,1.01,0,1.51-.62,1.51-1.85v-5.11h-3.19v-1.13h4.44v6.17c0,1.01-.23,1.77-.7,2.27-.47.5-1.16.75-2.06.75Z"/>
    <path d="M153.52,90.56c-1.16,0-2.07-.34-2.74-1.03s-1-1.69-1-3v-5.17h1.26v5.12c0,1.01.22,1.75.65,2.22.43.47,1.05.7,1.84.7s1.42-.23,1.85-.7.65-1.21.65-2.22v-5.12h1.22v5.17c0,1.32-.33,2.32-.99,3s-1.58,1.03-2.75,1.03Z"/>
    <path d="M161.41,90.46v-9.1h3.45c1.14,0,2.04.28,2.7.84.66.56.98,1.34.98,2.33,0,.66-.15,1.22-.44,1.7-.29.47-.72.83-1.26,1.08-.55.25-1.21.38-1.98.38h-2.75l.57-.6v3.37h-1.26ZM162.67,87.22l-.57-.64h2.71c.81,0,1.42-.18,1.84-.54.42-.36.62-.87.62-1.51s-.21-1.15-.62-1.51c-.42-.36-1.03-.53-1.84-.53h-2.71l.57-.65v5.38ZM167.32,90.46l-2.25-3.3h1.35l2.27,3.3h-1.38Z"/>
    <path d="M172.15,90.46v-9.1h1.04l3.96,6.88h-.56l3.91-6.88h1.04v9.1s-1.2,0-1.2,0v-7.14s.28,0,.28,0l-3.48,6.03h-.58l-3.51-6.03h.32v7.14h-1.21Z"/>
    <path d="M184.43,90.46l4-9.1h1.25l4.01,9.1h-1.33l-3.57-8.37h.5l-3.57,8.37h-1.3ZM186.13,88.19l.34-1.04h4.97l.37,1.04h-5.68Z"/>
    <path d="M196.57,90.46v-9.1h3.45c1.14,0,2.04.28,2.7.84.66.56.98,1.34.98,2.33,0,.66-.15,1.22-.44,1.7-.29.47-.72.83-1.26,1.08-.55.25-1.21.38-1.98.38h-2.75l.57-.6v3.37h-1.26ZM197.83,87.22l-.57-.64h2.71c.81,0,1.42-.18,1.84-.54.42-.36.62-.87.62-1.51s-.21-1.15-.62-1.51c-.42-.36-1.03-.53-1.84-.53h-2.71l.57-.65v5.38ZM202.48,90.46l-2.25-3.3h1.35l2.27,3.3h-1.38Z"/>
    <path d="M211.3,90.56c-.68,0-1.31-.11-1.88-.34s-1.07-.55-1.49-.98c-.42-.42-.75-.91-.98-1.48-.24-.56-.35-1.18-.35-1.86s.12-1.3.35-1.86.57-1.05.99-1.48c.42-.42.92-.75,1.5-.97s1.2-.34,1.89-.34,1.34.12,1.92.35c.58.23,1.07.58,1.48,1.05l-.78.81c-.36-.36-.75-.63-1.18-.8-.42-.17-.89-.25-1.38-.25s-.97.09-1.41.26c-.43.17-.81.42-1.12.73-.32.31-.56.68-.73,1.11-.17.43-.26.89-.26,1.4s.09.96.26,1.38c.17.43.42.8.73,1.12.32.32.69.56,1.12.73.43.17.9.26,1.4.26.47,0,.92-.08,1.36-.23s.83-.41,1.21-.76l.72.99c-.44.38-.95.67-1.53.86-.58.2-1.19.29-1.81.29ZM214.65,89.41l-1.21-.17v-3.38h1.21v3.55Z"/>
    <path d="M223.58,90.46v-9.1h6.24v1.13h-4.97v6.84h5.15v1.13h-6.41ZM224.73,86.39v-1.1h4.54v1.1h-4.54Z"/>
    <path d="M232.26,90.46l4-9.1h1.25l4.01,9.1h-1.33l-3.57-8.37h.5l-3.57,8.37h-1.3ZM233.97,88.19l.34-1.04h4.97l.37,1.04h-5.68Z"/>
    <path d="M246.98,90.56c-.67,0-1.32-.11-1.93-.32-.61-.21-1.1-.49-1.45-.83l.47-1.01c.34.3.77.55,1.29.75s1.06.3,1.63.3c.51,0,.93-.06,1.25-.18.32-.12.56-.29.71-.5.15-.21.23-.45.23-.72,0-.31-.1-.56-.3-.75-.2-.19-.46-.34-.77-.46-.32-.12-.66-.22-1.04-.31s-.76-.19-1.14-.31-.73-.27-1.05-.45c-.32-.18-.57-.43-.76-.73s-.29-.7-.29-1.19.12-.9.36-1.29c.24-.39.61-.71,1.11-.95.5-.24,1.14-.36,1.91-.36.51,0,1.02.07,1.53.21s.94.34,1.31.6l-.42,1.04c-.38-.26-.78-.45-1.2-.57-.42-.12-.83-.17-1.22-.17-.5,0-.9.06-1.22.19-.32.13-.55.3-.7.52s-.22.46-.22.73c0,.32.1.58.3.77.2.19.45.34.77.46.32.11.66.21,1.04.3.38.09.76.19,1.14.31.38.11.73.26,1.05.44.32.18.57.42.76.73.19.3.29.69.29,1.17s-.12.89-.37,1.28-.62.71-1.13.95c-.51.24-1.15.36-1.92.36Z"/>
    <path d="M255.44,90.46v-7.97h-3.03v-1.13h7.31v1.13h-3.03v7.97h-1.25Z"/>
    <path d="M261.6,92.38l.63-2.63.16.75c-.24,0-.45-.08-.61-.23-.16-.16-.25-.37-.25-.64s.08-.47.25-.64c.16-.16.36-.25.6-.25s.44.08.59.25.23.38.23.63c0,.09,0,.17-.02.25s-.03.18-.06.29-.07.24-.13.4l-.59,1.81h-.79Z"/>
    <path d="M271.64,90.46v-9.1h1.04l3.96,6.88h-.56l3.91-6.88h1.04v9.1s-1.2,0-1.2,0v-7.14s.28,0,.28,0l-3.48,6.03h-.58l-3.51-6.03h.32v7.14h-1.21Z"/>
    <path d="M288.92,90.56c-1.16,0-2.07-.34-2.74-1.03-.66-.68-1-1.69-1-3v-5.17h1.26v5.12c0,1.01.22,1.75.65,2.22.43.47,1.04.7,1.84.7s1.42-.23,1.85-.7.65-1.21.65-2.22v-5.12h1.22v5.17c0,1.32-.33,2.32-.99,3s-1.58,1.03-2.75,1.03Z"/>
    <path d="M296.81,90.46v-9.1h1.04l3.96,6.88h-.56l3.91-6.88h1.04v9.1s-1.2,0-1.2,0v-7.14s.28,0,.28,0l-3.48,6.03h-.58l-3.51-6.03h.32v7.14h-1.21Z"/>
    <path d="M310.43,90.46v-9.1h3.96c1.02,0,1.8.21,2.35.63.55.42.82,1,.82,1.72,0,.49-.11.91-.32,1.25-.21.34-.5.6-.87.78-.36.18-.75.27-1.17.27l.23-.39c.5,0,.95.09,1.34.27.39.18.69.45.92.8.23.35.34.79.34,1.31,0,.78-.28,1.38-.85,1.81s-1.41.64-2.53.64h-4.22ZM311.69,89.41h2.9c.7,0,1.23-.12,1.6-.36.37-.24.56-.62.56-1.14s-.19-.92-.56-1.16c-.37-.24-.9-.36-1.6-.36h-3.02v-1.05h2.7c.64,0,1.14-.12,1.49-.36.35-.24.53-.61.53-1.09s-.18-.85-.53-1.09c-.35-.24-.85-.36-1.49-.36h-2.59v6.99Z"/>
    <path d="M320.18,90.46l4-9.1h1.25l4.01,9.1h-1.33l-3.57-8.37h.5l-3.57,8.37h-1.3ZM321.89,88.19l.34-1.04h4.97l.37,1.04h-5.68Z"/>
    <path d="M332.32,90.46v-9.1h1.26v9.1h-1.26Z"/>
  </g>
</svg>